<svg width="24" height="24" viewBox="0 0 24 24" fill="none" xmlns="http://www.w3.org/2000/svg">
<path d="M13.5482 11.9981L18.6793 6.86837C19.1069 6.44094 19.1069 5.7481 18.6793 5.32057C18.2518 4.89314 17.5588 4.89314 17.1311 5.32057L12 10.4503L6.86887 5.32057C6.44133 4.89314 5.7483 4.89314 5.32066 5.32057C4.89311 5.748 4.89311 6.44084 5.32066 6.86837L10.4518 11.9981L5.32066 17.1279C4.89311 17.5553 4.89311 18.2482 5.32066 18.6757C5.52708 18.8821 5.80723 19 6.0874 19C6.36758 19 6.64773 18.8968 6.85415 18.6757L12 13.5459L17.1312 18.6757C17.3376 18.8821 17.6177 19 17.8979 19C18.1781 19 18.4582 18.8968 18.6647 18.6757C19.0922 18.2483 19.0922 17.5554 18.6647 17.1279L13.5482 11.9981Z" fill="#111827"/>
</svg>
